# AST/ASF file generated using VICON BodyLanguage
# -----------------------------------------------
:version 1.10
:name VICON
:units
  mass 1.0
  length 0.45
  angle deg
:documentation
   .ast/.asf automatically generated from VICON data using
   VICON BodyBuilder and BodyLanguage model FoxedUp or BRILLIANT.MOD
:root
   order TX TY TZ RX RY RZ
   axis XYZ
   position 0 0 0  
   orientation 0 -0 0 
:bonedata
  begin
     id 1 
     name lhipjoint
     direction 0.432694 -0.693742 0.575759 
     length 2.19277 
     axis 0 -0 0  XYZ
  end
  begin
     id 2 
     name lfemur
     direction 0.34202 -0.939693 0  
     length 6.69022  
     axis 0 -0 20  XYZ
    dof rx ry rz
    limits (-160.0 20.0)
           (-70.0 70.0)
           (-60.0 70.0)
  end
  begin
     id 3 
     name ltibia
     direction 0.34202 -0.939693 0   
     length 6.50337   
     axis 0 -0 20   XYZ
    dof rx
    limits (-10.0 170.0)
  end
  begin
     id 4 
     name lfoot
     direction 0.158999 -0.435969 0.885805   
     length 2.70564   
     axis -90 -1.13533e-015 20   XYZ
    dof rx rz
    limits (-45.0 90.0)
           (-70.0 20.0)
  end
  begin
     id 5 
     name ltoes
     direction -0.00592919 0.00964381 0.999936   
     length 1.29929   
     axis -90 -1.13533e-015 20   XYZ
    dof rx
    limits (-90.0 20.0)
  end
  begin
     id 6 
     name rhipjoint
     direction -0.414359 -0.700339 0.581234   
     length 2.17212  
     axis 0 -0 0  XYZ 
  end
  begin
     id 7 
     name rfemur
     direction -0.34202 -0.939693 0   
     length 7.17659   
     axis 0 -0 -20   XYZ
    dof rx ry rz
    limits (-160.0 20.0)
           (-70.0 70.0)
           (-70.0 60.0)
  end
  begin
     id 8 
     name rtibia
     direction -0.34202 -0.939693 0   
     length 6.36669   
     axis 0 -0 -20   XYZ
    dof rx
    limits (-10.0 170.0)
 end
 begin
     id 9 
     name rfoot
     direction -0.137064 -0.37658 0.916188   
     length 2.22351  
     axis -90 1.13533e-015 -20   XYZ
    dof rx rz
    limits (-45.0 90.0)
           (-20.0 70.0)
  end
  begin
     id 10 
     name rtoes
     direction -0.000784077 -0.00289101 0.999996   
     length 1.09522   
     axis -90 1.13533e-015 -20   XYZ
    dof rx
    limits (-90.0 20.0)
  end
  begin
     id 11 
     name lowerback
     direction -0.0176242 0.984912 -0.172157   
     length 1.65301   
     axis 0 -0 0   XYZ
    dof rx ry rz
    limits (-20.0 45.0)
           (-30.0 30.0)
           (-30.0 30.0)
  end
  begin
     id 12 
     name upperback
     direction -0.00218128 0.998776 -0.0494072   
     length 1.67776   
     axis 0 -0 0   XYZ
    dof rx ry rz
    limits (-20.0 45.0)
           (-30.0 30.0)
           (-30.0 30.0)
  end
  begin
     id 13 
     name thorax
     direction 0.00544186 0.999658 0.0255711   
     length 1.72293   
     axis 0 -0 0   XYZ
    dof rx ry rz
    limits (-20.0 45.0)
           (-30.0 30.0)
           (-30.0 30.0)
  end
  begin
     id 14 
     name lowerneck
     direction -0.105325 0.983841 0.144785   
     length 2.14226   
     axis 0 -0 0   XYZ
    dof rx ry rz
    limits (-20.0 45.0)
           (-30.0 30.0)
           (-30.0 30.0)
  end
  begin
     id 15 
     name upperneck
     direction 0.0547957 0.988053 -0.144041   
     length 2.17508   
     axis 0 -0 0   XYZ
    dof rx ry rz
    limits (-20.0 45.0)
           (-30.0 30.0)
           (-30.0 30.0)
  end
  begin
     id 16
     name head
     direction 0.0247488 0.997534 -0.0656813  
     length 2.20048  
     axis 0 -0 0   XYZ
    dof rx ry rz
    limits (-20.0 45.0)
           (-30.0 30.0)
           (-30.0 30.0)
  end
  begin
     id 17 
     name lclavicle
     direction 0.820559 0.567247 -0.0701026  
     length 4.09615  
     axis 0 -0 0   XYZ
    dof ry rz
    limits (-20.0 10.0)
           (0.0 20.0)
  end
  begin
     id 18 
     name lhumerus
     direction 0.999977 -0.0067566 -9.96392e-005   
     length 4.59333   
     axis -180 -30 -90   XYZ
    dof rx ry rz
    limits (-60.0 90.0)
           (-90.0 90.0)
           (-90.0 90.0)
  end
  begin
     id 19
     name lradius
     direction 1 -4.48982e-011 -2.53425e-027   
     length 2.81151   
     axis -180 -30 -90   XYZ
    dof rx
    limits (-10.0 170.0)
  end
  begin
     id 20
     name lwrist
     direction 1 -4.48939e-011 -7.39254e-028   
     length 1.40576   
     axis 2.56395e-016 90 90   XYZ
    dof ry
    limits (-180.0 0.0)
 end
  begin
     id 21 
     name lhand
     direction 1 -4.48939e-011 -1.47851e-027   
     length 0.895651   
     axis 9.43423e-016 90 90   XYZ
    dof rx rz
    limits (-90.0 90.0)
           (-45.0 45.0)
  end
  begin
     id 22 
     name lfingers
     direction 1 -4.48978e-011 -2.95702e-027   
     length 0.722097   
     axis 1.88685e-015 90 90   XYZ
    dof rx
    limits (0.0 90.0)
  end
  begin
     id 23
     name lthumb
     direction 0.707107 -6.34931e-011 0.707107   
     length 1.03679   
     axis -90 45 -9.86935e-015   XYZ
    dof rx rz
    limits (-45.0 45.0)
           (-45.0 45.0)
  end
  begin
     id 24 
     name rclavicle
     direction -0.831414 0.553102 -0.0531864   
     length 4.24872  
     axis 0 -0 0   XYZ 
    dof ry rz
    limits (-10.0 20.0)
           (-20.0 0.0)
  end
  begin
     id 25 
     name rhumerus
     direction -0.999916 -0.000939607 0.0129331  
     length 4.74834   
     axis -180 30 90   XYZ
    dof rx ry rz
    limits (-90.0 60.0)
           (-90.0 90.0)
           (-90.0 90.0)
  end
  begin
     id 26 
     name rradius
     direction -1 -4.48956e-011 -1.31752e-027   
     length 2.79907   
     axis -180 30 90   XYZ
    dof rx
    limits (-10.0 170.0)
  end
  begin
     id 27 
     name rwrist
     direction -1 -4.4897e-011 -7.39254e-028   
     length 1.39954   
     axis 2.56395e-016 -90 -90   XYZ
    dof ry
    limits (-180.0 0.0)
  end
  begin
     id 28
     name rhand
     direction -0.999997 -0.00250697 0.000800838   
     length 0.953304   
     axis 9.43423e-016 -90 -90   XYZ
    dof rx rz
    limits (-90.0 90.0)
           (-45.0 45.0)
  end
  begin
     id 29
     name rfingers
     direction -1 -4.48954e-011 -2.95702e-027   
     length 0.763342   
     axis 1.88685e-015 -90 -90   XYZ
    dof rx
    limits (0.0 90.0)
  end
  begin
     id 30
     name rthumb
     direction -0.709701 -0.00217037 0.7045   
     length 1.10115   
     axis -90 -45 9.86935e-015   XYZ
    dof rx rz
    limits (-45.0 45.0)
           (-45.0 45.0)
  end
:hierarchy
  begin
    root lhipjoint rhipjoint lowerback
    lhipjoint lfemur
    lfemur ltibia
    ltibia lfoot
    lfoot ltoes
    rhipjoint rfemur
    rfemur rtibia
    rtibia rfoot
    rfoot rtoes
    lowerback upperback
    upperback thorax
    thorax lowerneck lclavicle rclavicle
    lowerneck upperneck
    upperneck head
    lclavicle lhumerus
    lhumerus lradius
    lradius lwrist
    lwrist lhand lthumb
    lhand lfingers
    rclavicle rhumerus
    rhumerus rradius
    rradius rwrist
    rwrist rhand rthumb
    rhand rfingers
  end

#!OML:ASF G:\ViconDB\ViconDB\414\test\team2\shane.ASF
:FULLY-SPECIFIED
:DEGREES
63
root 5.15539 15.0025 -28.6925 11.3988 6.2349 -2.73588
lowerback 18.0465 -0.953931 -3.14739
upperback 8.0309 -1.65603 1.72442
thorax -1.34516 -0.916756 3.9154
lowerneck -17.5055 -5.13907 -14.7525
upperneck 12.8009 -6.18362 16.7027
head 7.85469 -2.22698 7.3678
rclavicle -1.19271e-015 -3.18055e-015
rhumerus -52.2417 18.2162 -73.6902
rradius 39.1928
rwrist 45.7617
rhand -26.7583 -3.6356
rfingers 7.12502
rthumb -0.186608 -33.6153
lclavicle -1.19271e-015 -3.18055e-015
lhumerus -9.6973 -35.3544 95.5616
lradius 73.0373
lwrist -18.3433
lhand -53.0941 8.49723
lfingers 7.12502
lthumb -25.5559 36.8029
rfemur -30.338 -19.1069 13.8173
rtibia 94.792
rfoot -21.7583 -1.01165
rtoes -7.59696
lfemur -16.0808 5.28782 -13.3848
ltibia 58.8201
lfoot -47.9768 -11.4851
ltoes -23.8233
64
root 5.14872 15.0523 -28.3138 11.1437 7.35881 -2.70414
lowerback 18.6627 -1.5658 -3.23137
upperback 7.72734 -2.45395 2.30826
thorax -1.87948 -1.30551 4.7662
lowerneck -17.6951 -5.01366 -15.2604
upperneck 13.3792 -5.87404 16.481
head 8.02746 -2.11425 7.43769
rclavicle -2.42517e-014 1.03368e-014
rhumerus -55.5331 18.7663 -72.3202
rradius 39.768
rwrist 46.4472
rhand -26.0197 -3.26746
rfingers 7.12502
rthumb 0.526755 -33.2466
lclavicle -2.42517e-014 1.03368e-014
lhumerus -7.9055 -35.6538 95.6731
lradius 75.1789
lwrist -18.5673
lhand -53.4173 8.65625
lfingers 7.12502
lthumb -25.8654 36.9172
rfemur -33.3804 -19.9109 14.624
rtibia 95.0522
rfoot -22.9189 -0.985734
rtoes -9.40302
lfemur -13.647 3.78131 -12.772
ltibia 56.5827
lfoot -46.8652 -13.7204
ltoes -23.501
65
root 5.14158 15.086 -27.9208 11.171 8.16268 -2.42122
lowerback 18.9784 -2.1675 -3.33189
upperback 7.2427 -3.24684 2.58107
thorax -2.45236 -1.67878 5.30139
lowerneck -17.7618 -4.76055 -15.451
upperneck 14.0237 -5.49897 16.3134
head 8.18181 -1.95699 7.48353
rclavicle 4.96962e-015 -5.1684e-015
rhumerus -59.2295 19.8758 -71.8784
rradius 40.558
rwrist 45.6815
rhand -26.4349 -3.82027
rfingers 7.12502
rthumb 0.125669 -33.8
lclavicle 4.96962e-015 -5.1684e-015
lhumerus -6.79428 -35.8836 95.4773
lradius 77.5293
lwrist -18.7809
lhand -53.4107 8.71635
lfingers 7.12502
lthumb -25.8591 36.9782
rfemur -36.6455 -20.2888 15.2022
rtibia 94.9705
rfoot -24.0214 -0.932711
rtoes -9.60873
lfemur -11.2169 2.66967 -12.7094
ltibia 54.0435
lfoot -45.8301 -13.5745
ltoes -25.169
66
root 5.11673 15.1368 -27.5061 10.8447 8.70213 -2.46989
lowerback 19.206 -2.59398 -3.48136
upperback 7.09657 -3.81417 2.95714
thorax -2.62001 -1.9596 5.92313
lowerneck -18.0265 -4.5593 -15.4712
upperneck 14.5808 -5.17319 16.0038
head 8.3435 -1.82084 7.43843
rclavicle 9.74045e-015 2.36554e-014
rhumerus -62.5833 21.011 -71.8055
rradius 41.7107
rwrist 42.7572
rhand -26.718 -4.10321
rfingers 7.12502
rthumb -0.147763 -34.0829
lclavicle 9.74045e-015 2.36554e-014
lhumerus -5.20461 -35.9323 94.8987
lradius 79.4321
lwrist -19.3242
lhand -53.6722 8.69094
lfingers 7.12502
lthumb -26.1095 36.9161
rfemur -39.3108 -19.9176 16.2029
rtibia 94.3009
rfoot -25.0786 -1.23747
rtoes -10.6045
lfemur -8.21358 1.85681 -12.0323
ltibia 51.174
lfoot -44.3679 -14.9333
ltoes -25.8786
67
root 5.0971 15.1845 -27.0836 10.5642 8.99735 -2.69942
lowerback 19.1425 -2.95556 -3.24928
upperback 6.98644 -4.23099 3.21208
thorax -2.64946 -2.16417 6.14752
lowerneck -18.2084 -4.33734 -15.3149
upperneck 15.0414 -4.8849 15.7899
head 8.46599 -1.68844 7.38928
rclavicle 5.88403e-014 -5.42682e-014
rhumerus -65.9399 21.7931 -71.9683
rradius 43.0614
rwrist 39.9733
rhand -27.985 -4.25992
rfingers 7.12502
rthumb -1.37147 -34.2353
lclavicle 5.88403e-014 -5.42682e-014
lhumerus -4.42427 -35.9475 94.4489
lradius 81.4337
lwrist -20.2311
lhand -54.0802 8.72007
lfingers 7.12502
lthumb -26.5001 36.8869
rfemur -41.9389 -19.2247 17.2816
rtibia 93.2872
rfoot -25.6832 -1.01943
rtoes -9.83641
lfemur -4.94918 0.760695 -11.6167
ltibia 47.9425
lfoot -43.2042 -13.5504
ltoes -28.3038
68
root 5.07527 15.2475 -26.6472 10.518 9.1941 -2.93235
lowerback 19.0025 -3.31383 -3.08656
upperback 6.6795 -4.65421 3.5127
thorax -2.8385 -2.36487 6.46589
lowerneck -18.2657 -4.02682 -15.0287
upperneck 15.6351 -4.47991 15.2902
head 8.58042 -1.52573 7.23132
rclavicle 1.2921e-014 -2.74323e-014
rhumerus -69.6448 23.014 -72.7227
rradius 45.3151
rwrist 36.5736
rhand -28.9641 -4.87986
rfingers 7.12502
rthumb -2.31703 -34.847
lclavicle 1.2921e-014 -2.74323e-014
lhumerus -4.61322 -35.5251 94.3225
lradius 83.4659
lwrist -21.2211
lhand -54.2463 8.03623
lfingers 7.12502
lthumb -26.6591 36.179
rfemur -44.5271 -18.4587 18.463
rtibia 91.7621
rfoot -26.0575 -0.820179
rtoes -9.96898
lfemur -2.09988 -0.219266 -10.8986
ltibia 44.365
lfoot -40.334 -16.2822
ltoes -28.4068
69
root 5.05172 15.3091 -26.1988 10.5369 9.18722 -3.12884
lowerback 18.7927 -3.62834 -2.94872
upperback 6.3318 -5.02669 3.78382
thorax -3.03959 -2.53927 6.75339
lowerneck -18.4054 -3.68728 -14.7378
upperneck 16.3866 -4.01104 14.6758
head 8.75394 -1.34343 7.04586
rclavicle 2.72335e-014 -3.97569e-014
rhumerus -73.1999 24.2301 -73.643
rradius 47.76
rwrist 35.0984
rhand -30.8069 -6.37481
rfingers 7.12502
rthumb -4.0967 -36.3152
lclavicle 2.72335e-014 -3.97569e-014
lhumerus -5.66714 -34.781 94.6206
lradius 85.5718
lwrist -22.3057
lhand -54.2259 7.93508
lfingers 7.12502
lthumb -26.6395 36.0808
rfemur -46.9009 -17.4866 19.5075
rtibia 89.8671
rfoot -26.6307 -0.68811
rtoes -11.0109
lfemur 1.04606 -0.665534 -10.3345
ltibia 40.3051
lfoot -37.5695 -17.5809
ltoes -30.1845
70
root 5.01897 15.3863 -25.729 10.6275 8.89351 -3.2425
lowerback 18.5638 -3.85132 -3.28419
upperback 5.91437 -5.36182 4.15029
thorax -3.25059 -2.69888 7.40991
lowerneck -18.4858 -3.2343 -14.6601
upperneck 17.1995 -3.33853 14.1014
head 8.9156 -1.08174 6.9418
rclavicle 4.19436e-014 -1.78906e-014
rhumerus -76.2244 25.5405 -74.3135
rradius 50.3129
rwrist 33.7926
rhand -32.2296 -6.50952
rfingers 7.12502
rthumb -5.4704 -36.4189
lclavicle 2.72335e-014 -3.97569e-014
lhumerus -5.66714 -34.781 94.6206
lradius 85.5718
lwrist -22.3057
lhand -54.2259 7.93508
lfingers 7.12502
lthumb -26.6395 36.0808
rfemur -48.9648 -16.1695 20.4169
rtibia 87.5317
rfoot -26.8691 -0.36868
rtoes -10.0958
lfemur 4.48594 -0.782617 -9.82681
ltibia 35.662
lfoot -34.201 -19.0948
ltoes -31.8998
71
root 4.99352 15.468 -25.2464 10.5158 8.4019 -3.32873
lowerback 18.0925 -4.06045 -3.51175
upperback 5.80304 -5.66887 4.32839
thorax -3.03425 -2.86434 7.74992
lowerneck -18.6819 -2.68909 -14.0439
upperneck 17.8963 -2.57829 13.1564
head 9.0399 -0.779519 6.61427
rclavicle -3.03147e-014 -2.38542e-015
rhumerus -78.7896 26.848 -75.4621
rradius 53.0107
rwrist 33.4426
rhand -34.3009 -7.96308
rfingers 7.12502
rthumb -7.47004 -37.8112
lclavicle 2.72335e-014 -3.97569e-014
lhumerus -5.66714 -34.781 94.6206
lradius 85.5718
lwrist -22.3057
lhand -54.2259 7.93508
lfingers 7.12502
lthumb -26.6395 36.0808
rfemur -50.429 -15.0467 21.2075
rtibia 84.8777
rfoot -27.2942 -0.0696773
rtoes -9.90371
lfemur 8.18764 -0.972667 -9.51486
ltibia 30.9451
lfoot -30.3256 -20.4776
ltoes -33.602
72
root 4.95875 15.5547 -24.7515 10.4228 7.76864 -3.47596
lowerback 17.4818 -4.17443 -3.96569
upperback 5.76498 -5.88354 4.6474
thorax -2.63405 -2.99975 8.33326
lowerneck -18.8665 -2.16258 -13.6103
upperneck 18.5038 -1.76873 12.1633
head 9.14189 -0.476035 6.3045
rclavicle 1.25135e-013 -6.22196e-014
rhumerus -80.6756 28.2274 -76.5337
rradius 55.805
rwrist 31.5406
rhand -35.5833 -7.86787
rfingers 7.12502
rthumb -8.70769 -37.6683
lclavicle 2.72335e-014 -3.97569e-014
lhumerus -5.66714 -34.781 94.6206
lradius 85.5718
lwrist -22.3057
lhand -54.2259 7.93508
lfingers 7.12502
lthumb -26.6395 36.0808
rfemur -51.5526 -13.8362 22.1264
rtibia 81.817
rfoot -27.4724 -0.282979
rtoes -11.6717
lfemur 12.2311 -0.524329 -9.07548
ltibia 25.4694
lfoot -25.9413 -21.7516
ltoes -36.0255
73
root 4.93667 15.5585 -24.2802 10.3056 7.14964 -3.76027
lowerback 16.8802 -4.41815 -3.80346
upperback 5.78654 -6.1726 4.74727
thorax -2.25226 -3.1636 8.32936
lowerneck -19.1732 -1.59975 -12.8788
upperneck 19.1428 -0.978845 11.1799
head 9.29369 -0.161681 5.94971
rclavicle -7.09661e-014 4.79071e-014
rhumerus -82.1699 29.4062 -77.9952
rradius 58.6567
rwrist 31.268
rhand -36.8639 -8.81175
rfingers 7.12502
rthumb -9.9433 -38.5569
lclavicle 2.72335e-014 -3.97569e-014
lhumerus -5.66714 -34.781 94.6206
lradius 85.5718
lwrist -22.3057
lhand -54.2259 7.93508
lfingers 7.12502
lthumb -26.6395 36.0808
rfemur -52.9019 -13.0333 23.1702
rtibia 78.6802
rfoot -27.295 0.264285
rtoes -11.9991
lfemur 16.4578 -0.80033 -8.52908
ltibia 19.3392
lfoot -18.8232 -24.0736
ltoes -36.7045
74
root 4.92153 15.654 -23.7755 10.1102 6.43625 -4.05081
lowerback 16.2984 -4.61248 -3.65601
upperback 5.80418 -6.40226 4.87831
thorax -1.88911 -3.29745 8.35669
lowerneck -19.185 -1.01021 -12.1645
upperneck 19.7477 -0.154043 10.1009
head 9.39307 0.146791 5.5632
rclavicle 9.77027e-014 -5.88403e-014
rhumerus -83.0049 30.3787 -79.0685
rradius 61.2178
rwrist 31.3335
rhand -37.7852 -8.97878
rfingers 7.12502
rthumb -10.832 -38.6794
lclavicle 2.72335e-014 -3.97569e-014
lhumerus -5.66714 -34.781 94.6206
lradius 85.5718
lwrist -22.3057
lhand -54.2259 7.93508
lfingers 7.12502
lthumb -26.6395 36.0808
rfemur -53.2216 -12.5453 24.2456
rtibia 74.8015
rfoot -26.9037 1.30118
rtoes -12.5908
lfemur 21.6427 -0.377992 -8.14786
ltibia 11.2965
lfoot -11.3925 -25.3471
ltoes -38.2203
75
root 4.91044 15.7691 -23.2635 9.86129 5.65873 -4.32558
lowerback 15.933 -4.77618 -3.32397
upperback 5.8315 -6.57043 4.88641
thorax -1.67838 -3.38816 8.15747
lowerneck -19.385 -0.502375 -11.5313
upperneck 20.4461 0.536456 9.32406
head 9.59183 0.418528 5.2928
rclavicle 1.07344e-014 1.53064e-014
rhumerus -83.2572 31.0196 -79.9541
rradius 63.8054
rwrist 31.4728
rhand -38.4366 -7.96521
rfingers 7.12502
rthumb -11.4603 -37.632
lclavicle 2.72335e-014 -3.97569e-014
lhumerus -5.66714 -34.781 94.6206
lradius 85.5718
lwrist -22.3057
lhand -54.2259 7.93508
lfingers 7.12502
lthumb -26.6395 36.0808
rfemur -53.1117 -12.6199 25.5826
rtibia 70.5546
rfoot -26.5299 2.1317
rtoes -14.8499
lfemur 28.2567 -0.316785 -7.75502
ltibia 3.18055e-014
lfoot 0.863559 -25.7656
ltoes -37.1671
76
root 4.90439 15.8776 -22.7574 9.62987 4.99779 -4.43074
lowerback 15.5561 -4.93001 -3.04945
upperback 5.89764 -6.73937 4.8032
thorax -1.42688 -3.47944 7.8874
lowerneck -19.5369 -0.0566525 -10.7016
upperneck 21.0859 1.09025 8.51487
head 9.79153 0.6361 4.95838
rclavicle 8.54774e-015 -5.78463e-014
rhumerus -83.0675 31.2061 -81.05
rradius 66.5542
rwrist 31.6524
rhand -38.8379 -8.93439
rfingers 7.12502
rthumb -11.8473 -38.5792
lclavicle 2.72335e-014 -3.97569e-014
lhumerus -5.66714 -34.781 94.6206
lradius 85.5718
lwrist -22.3057
lhand -54.2259 7.93508
lfingers 7.12502
lthumb -26.6395 36.0808
rfemur -52.7977 -13.2859 26.8369
rtibia 66.0649
rfoot -25.9454 3.66322
rtoes -16.155
lfemur 29.4484 -0.29006 -7.75323
ltibia -8.5875e-014
lfoot 5.797 -25.2899
ltoes -35.8408
77
root 4.8942 15.9817 -22.2564 9.38404 4.22265 -4.53175
lowerback 15.3369 -4.9984 -2.85013
upperback 5.95346 -6.80783 4.73357
thorax -1.27546 -3.51718 7.67982
lowerneck -19.7699 0.278918 -10.1328
upperneck 21.7874 1.50571 8.01548
head 10.0486 0.802678 4.76819
rclavicle -4.65156e-014 2.96189e-014
rhumerus -82.1634 31.3846 -81.7714
rradius 68.9684
rwrist 32.009
rhand -39.5077 -9.39691
rfingers 7.12502
rthumb -12.4932 -39.0035
lclavicle 2.72335e-014 -3.97569e-014
lhumerus -5.66714 -34.781 94.6206
lradius 85.5718
lwrist -22.3057
lhand -54.2259 7.93508
lfingers 7.12502
lthumb -26.6395 36.0808
rfemur -52.2992 -14.3599 28.3134
rtibia 61.6979
rfoot -25.9855 5.23251
rtoes -17.8632
lfemur 30.669 -0.137303 -7.82191
ltibia 3.81667e-014
lfoot 10.5434 -24.6682
ltoes -32.821
